<svg width="1400" height="150" viewBox="0 0 1400 150" fill="none" xmlns="http://www.w3.org/2000/svg">
  <defs>
    <linearGradient id="bg" x1="0" y1="0" x2="1400" y2="150" gradientUnits="userSpaceOnUse">
      <stop stop-color="#EEF7FF"/>
      <stop offset="0.5" stop-color="#F8FCFF"/>
      <stop offset="1" stop-color="#E8F2FF"/>
    </linearGradient>
    <linearGradient id="panel" x1="1114" y1="20" x2="1368" y2="132" gradientUnits="userSpaceOnUse">
      <stop stop-color="#F6FBFF" stop-opacity="0.92"/>
      <stop offset="1" stop-color="#DCEBFF" stop-opacity="0.84"/>
    </linearGradient>
    <filter id="shadow" x="-20%" y="-20%" width="150%" height="180%" color-interpolation-filters="sRGB">
      <feDropShadow dx="0" dy="10" stdDeviation="12" flood-color="#2C65D8" flood-opacity="0.12"/>
    </filter>
  </defs>

  <rect x="0.5" y="0.5" width="1399" height="149" rx="14.5" fill="url(#bg)" stroke="#CFE2FF"/>
  <path d="M20 82C150 30 330 54 518 73C742 95 989 41 1203 56C1264 60 1320 68 1388 84" stroke="#DDEBFF" stroke-width="2" opacity="0.78"/>
  <path d="M0 103C180 42 407 74 625 64C851 53 1112 60 1400 24" stroke="white" stroke-width="2" opacity="0.6"/>

  <g filter="url(#shadow)">
    <ellipse cx="127" cy="125" rx="66" ry="12" fill="#D8E9FF"/>
    <path d="M47 123L57 74C63 37 91 18 128 18C168 18 196 41 196 78V123H47Z" fill="#FEFFFF"/>
    <path d="M47 123L57 74C63 37 91 18 128 18C168 18 196 41 196 78V123" stroke="#D4E2FF" stroke-width="2"/>
    <rect x="69" y="62" width="15" height="36" rx="7.5" fill="#D7E8FF" stroke="#85AFFF" stroke-width="3"/>
    <rect x="176" y="62" width="15" height="36" rx="7.5" fill="#D7E8FF" stroke="#85AFFF" stroke-width="3"/>
    <path d="M92 41C100 20 154 20 161 41" stroke="#C6DAFF" stroke-width="4" stroke-linecap="round"/>
    <rect x="109" y="19" width="31" height="7" rx="3.5" fill="#59D9F3"/>
    <rect x="89" y="31" width="83" height="64" rx="30" fill="#FBFDFF" stroke="#D1E1FF" stroke-width="3"/>
    <rect x="97" y="39" width="67" height="49" rx="17" fill="#101D67"/>
    <path d="M116 65C120 57 133 57 137 65" stroke="#55E5F7" stroke-width="6" stroke-linecap="round"/>
    <path d="M127 73C132 78 143 78 148 73" stroke="#55E5F7" stroke-width="6" stroke-linecap="round"/>
    <path d="M146 65C150 57 163 57 167 65" stroke="#55E5F7" stroke-width="6" stroke-linecap="round"/>
    <path d="M53 38L66 57" stroke="#9ABBFF" stroke-width="4" stroke-linecap="round"/>
    <path d="M60 26L68 41" stroke="#9ABBFF" stroke-width="4" stroke-linecap="round"/>
    <path d="M180 74C195 72 209 81 217 94" stroke="#9ABBFF" stroke-width="5" stroke-linecap="round"/>
    <path d="M186 84L205 104" stroke="#9ABBFF" stroke-width="5" stroke-linecap="round"/>
    <path d="M156 90C167 93 176 102 181 114" stroke="#9ABBFF" stroke-width="5" stroke-linecap="round"/>
    <path d="M88 94C77 96 69 103 64 113" stroke="#9ABBFF" stroke-width="5" stroke-linecap="round"/>
    <rect x="107" y="106" width="41" height="19" rx="9.5" fill="#FBFDFF" stroke="#C5D9FF" stroke-width="3"/>
    <path d="M126 126L136 108" stroke="#2F73FF" stroke-width="8" stroke-linecap="round"/>
    <path d="M136 126L124 111" stroke="#67C9FF" stroke-width="8" stroke-linecap="round"/>
  </g>

  <text x="254" y="55" fill="#17388F" font-size="34" font-weight="800" font-family="PingFang SC, Microsoft YaHei, sans-serif">欢迎使用企业 AI 知识库助手</text>
  <text x="254" y="85" fill="#566A8C" font-size="15" font-family="PingFang SC, Microsoft YaHei, sans-serif">快速查看企业知识运行情况、AI 问答数据与知识更新动态</text>

  <g font-family="PingFang SC, Microsoft YaHei, sans-serif" font-size="14" font-weight="600">
    <g>
      <rect x="255" y="101" width="117" height="36" rx="8" fill="white" fill-opacity="0.78" stroke="#C9DCFA"/>
      <path d="M285 111L296 116L285 121L274 116L285 111Z" fill="#3974FF"/>
      <path d="M274 123L285 128L296 123" stroke="#3974FF" stroke-width="2.6" stroke-linecap="round" stroke-linejoin="round"/>
      <path d="M274 116L285 121L296 116" stroke="#3974FF" stroke-width="2.6" stroke-linecap="round" stroke-linejoin="round"/>
      <text x="312" y="124" fill="#2F4D92">知识沉淀</text>
    </g>
    <g>
      <rect x="387" y="101" width="117" height="36" rx="8" fill="white" fill-opacity="0.78" stroke="#C9DCFA"/>
      <rect x="417" y="113" width="21" height="15" rx="5" fill="#4A72FF"/>
      <circle cx="423" cy="121" r="1.8" fill="white"/>
      <circle cx="428" cy="121" r="1.8" fill="white"/>
      <circle cx="433" cy="121" r="1.8" fill="white"/>
      <path d="M422 128L418 132" stroke="#4A72FF" stroke-width="2.6" stroke-linecap="round"/>
      <text x="451" y="124" fill="#2F4D92">智能问答</text>
    </g>
    <g>
      <rect x="519" y="101" width="117" height="36" rx="8" fill="white" fill-opacity="0.78" stroke="#C9DCFA"/>
      <circle cx="550" cy="119" r="11" stroke="#4471FF" stroke-width="3.4"/>
      <path d="M558 127L567 136" stroke="#4471FF" stroke-width="3.4" stroke-linecap="round"/>
      <text x="580" y="124" fill="#2F4D92">文档检索</text>
    </g>
    <g>
      <rect x="651" y="101" width="117" height="36" rx="8" fill="white" fill-opacity="0.78" stroke="#C9DCFA"/>
      <circle cx="681" cy="115" r="7" stroke="#4471FF" stroke-width="3.4"/>
      <path d="M668 129C671 120 691 120 694 129" stroke="#4471FF" stroke-width="3.4" stroke-linecap="round"/>
      <text x="708" y="124" fill="#2F4D92">员工助手</text>
    </g>
  </g>

  <g transform="translate(1120 20)" filter="url(#shadow)" opacity="0.9">
    <rect x="0.5" y="0.5" width="242" height="108" rx="14.5" fill="url(#panel)" stroke="#C4D8FF"/>
    <rect x="19" y="18" width="122" height="29" rx="7" fill="white" fill-opacity="0.76"/>
    <circle cx="34" cy="32.5" r="8" fill="#9FC2FF"/>
    <rect x="50" y="27" width="62" height="10" rx="5" fill="#D8E5FD"/>
    <rect x="156" y="21" width="67" height="11" rx="5.5" fill="#DEE9FF"/>
    <rect x="156" y="38" width="59" height="10" rx="5" fill="#E6EFFF"/>
    <rect x="19" y="60" width="68" height="42" rx="8" fill="white" fill-opacity="0.62"/>
    <rect x="33" y="73" width="39" height="7" rx="3.5" fill="#B9D1FA"/>
    <rect x="33" y="86" width="35" height="7" rx="3.5" fill="#C9DCF9"/>
    <rect x="105" y="61" width="67" height="7" rx="3.5" fill="#D4E2FC"/>
    <rect x="105" y="76" width="52" height="7" rx="3.5" fill="#E0EAFC"/>
    <rect x="105" y="91" width="44" height="7" rx="3.5" fill="#E8F0FD"/>
    <circle cx="196" cy="78" r="31" fill="white" fill-opacity="0.74"/>
    <path d="M196 47C214 47 228 60 229 76L196 78Z" fill="#A7C2FF"/>
    <path d="M196 78L229 76C229 94 215 107 196 109Z" fill="#5F90FF"/>
    <rect x="130" y="84" width="6" height="18" rx="3" fill="#D6E5FF"/>
    <rect x="143" y="76" width="6" height="26" rx="3" fill="#C4D8FF"/>
    <rect x="156" y="68" width="6" height="34" rx="3" fill="#8FB7FF"/>
  </g>
</svg>
